<?xml version="1.0" encoding="utf-8"?>
<!-- Generator: Adobe Illustrator 17.0.0, SVG Export Plug-In . SVG Version: 6.00 Build 0)  -->
<!DOCTYPE svg PUBLIC "-//W3C//DTD SVG 1.1//EN" "http://www.w3.org/Graphics/SVG/1.1/DTD/svg11.dtd">
<svg version="1.1" id="Layer_1" xmlns="http://www.w3.org/2000/svg" xmlns:xlink="http://www.w3.org/1999/xlink" x="0px" y="0px"
	 width="633.9px" height="485.2px" viewBox="0 0 633.9 485.2" style="enable-background:new 0 0 633.9 485.2;" xml:space="preserve"
	>
<style type="text/css">
	.st0{fill:#1A1A1A;}
	.st1{fill:#A6A8AB;}
	.st2{fill:#FFCC2D;}
	.st3{fill:#A3D2D9;}
</style>
<g>
	<path class="st0" d="M374.1,146.1l2.1-48.1l-7.6,0l-3.2,77.7l11.7-0.1c0,0,15.8-1.4,15.8-15.2C392.8,150.3,381,146.4,374.1,146.1z
		 M373.1,169.8l0.9-18c3.9-0.2,11.2-0.1,11.2,9.3C385.2,167.8,376.7,170,373.1,169.8z"/>
	<path class="st0" d="M350.5,118.1l7.3-0.9c0,0,2.8-20.4-11.6-19.9c-14.4,0.5-18.9,19.9-18.8,40.1c0.1,20.2,1.9,39.6,17,39.2
		c15.1-0.4,11.9-20.2,11.9-20.2l-7.6,0.8c0,0,3.1,11.7-3.8,11.7c-8.2,0-10.7-10.3-10-31c0.7-21,1.6-33.2,11.3-33.2
		C351.6,104.7,350.5,118.1,350.5,118.1z"/>
	<path class="st0" d="M186,156c-3.6-10.2-13.2-10.3-18.8-8.9l0.6-16c20.8-2.3,22.1-31.4,22.1-31.4l-7.6,0c0,22-10.8,25.4-14.2,25.4
		l0.7-25.4l-7.8,0l-2.1,75.9l7.9,0l0.5-22.9c16.4-5.4,14.6,22.7,14.6,22.7l7.4,0C189.3,175.6,190.5,168.7,186,156z"/>
	<path class="st0" d="M147.4,261.8c-3.6-10.2-13.2-10.3-18.8-8.9l0.6-16c22.2-2.5,23-32.5,23-32.5l-7.6,0c0,22-11.7,26.5-15.1,26.5
		l0.7-26.4l-7.8,0l-2.1,77l7.9,0l0.5-22.9c16.4-5.4,14.6,22.7,14.6,22.7l7.4,0C150.6,281.4,151.8,274.5,147.4,261.8z"/>
	<path class="st0" d="M424.9,156c-3.6-10.2-13.2-10.3-18.8-8.9l0.6-16c20.8-2.3,22.1-31.4,22.1-31.4l-7.6,0
		c0,22-10.8,25.4-14.2,25.4l0.7-25.4l-7.8,0l-2.1,75.9l7.9,0l0.5-22.9c16.4-5.4,14.6,22.7,14.6,22.7l7.4,0
		C428.2,175.6,429.4,168.7,424.9,156z"/>
	<g>
		<polygon class="st0" points="202.2,176 195.1,176.1 197.3,100.9 204.8,100.9 		"/>
		<path class="st0" d="M202.3,131.6c0,0,23.5,0.4,23.5-17c0-10.6-12.8-13.4-21.2-14.2c-4.2-0.3-7.3-0.2-7.3-0.2l-0.1,5.9l7.1-0.2
			c0,0,14.1-2,14.1,8.9c0,6.5-6.7,10.8-15.8,10.8L202.3,131.6z"/>
	</g>
	<g>
		<polygon class="st0" points="351.1,281.1 344,281.1 346.2,206 353.6,206 		"/>
		<path class="st0" d="M351.2,236.7c0,0,23.5,0.4,23.5-17c0-10.6-12.8-13.4-21.2-14.2c-4.2-0.3-7.3-0.2-7.3-0.2l-0.1,5.9l7.1-0.2
			c0,0,14.1-2,14.1,8.9c0,6.5-6.7,10.8-15.8,10.8L351.2,236.7z"/>
	</g>
	<polygon class="st0" points="270.5,175.5 262.9,175.5 265.9,99.8 273.6,99.8 	"/>
	<g>
		<path class="st0" d="M277.6,79L277.6,79L277.6,79c-3,0.8-5.6,2.8-5.6,7.2c0,6.8,5.5,8.6,8.8,9.1c1.2,0.2,1.5,0.1,1.5,0.1
			c0,0,0,0,0,0c0.6-0.1,1.1-0.1,1.7-0.3c2.7-0.9,4.9-2.8,4.9-6.8C289,78.4,277.6,79,277.6,79z M281.9,89.9L281.9,89.9L281.9,89.9
			c-0.1,0-0.2,0.1-0.3,0.1c-0.3,0.1-0.6,0.1-0.9,0.1c-2-0.1-3.4-0.7-3.4-3.4c0-1.3,0.8-2.3,1.9-2.5c2.7,0,4.6,0.3,4.6,3.4
			C283.7,88.9,282.8,89.6,281.9,89.9z"/>
	</g>
	<g>
		<path class="st0" d="M255.9,79L255.9,79L255.9,79c-3,0.8-5.6,2.8-5.6,7.2c0,6.8,5.5,8.6,8.8,9.1c1.2,0.2,1.5,0.1,1.5,0.1
			c0,0,0,0,0,0c0.6-0.1,1.1-0.1,1.7-0.3c2.7-0.9,4.9-2.8,4.9-6.8C267.3,78.4,255.9,79,255.9,79z M260.2,89.9L260.2,89.9L260.2,89.9
			c-0.1,0-0.2,0.1-0.3,0.1c-0.3,0.1-0.6,0.1-0.9,0.1c-2-0.1-3.4-0.7-3.4-3.4c0-1.3,0.8-2.3,1.9-2.5c2.7,0,4.6,0.3,4.6,3.4
			C262.1,88.9,261.2,89.6,260.2,89.9z"/>
	</g>
	<g>
		<g>
			<path class="st0" d="M132,156.6L132,156.6L132,156.6c-4.3,1.1-8.1,4-8.1,10.3c0,9.7,7.9,12.3,12.7,13c1.7,0.2,2.1,0.2,2.2,0.2
				c0,0,0,0,0,0c0.8-0.2,1.6-0.2,2.4-0.4c3.8-1.3,7.1-4.1,7.1-9.8C148.3,155.7,132,156.6,132,156.6z M138.4,172.9L138.4,172.9
				L138.4,172.9c-0.2,0.1-0.3,0.1-0.5,0.2c-0.5,0.1-1.1,0.1-1.5,0.1c-3.3-0.2-5.6-1.2-5.6-5.6c0-2.2,1.4-3.8,3.1-4.1
				c4.4,0,7.6,0.5,7.6,5.6C141.5,171.2,140,172.3,138.4,172.9z"/>
		</g>
		<path class="st0" d="M144.4,99.7l0.4,18.5c0,5.7-0.1,9.5-0.5,13.7c-0.6,7.3-1.5,15.8-8.1,15.8s-7.5-10.6-8.2-15.8
			c-0.3-2.1-0.7-5.2-0.7-13.9s0.7-18.3,0.7-18.3h-7.5c0,0-0.6,11.7-0.6,18.2c0,6.4,0.4,10.9,0.6,13.9c1.1,13.9,4.2,21.6,15.8,21.6
			c10.6,0,14.5-7.5,15.7-21.7c0.4-4.8,0.4-8.3,0.4-13.6L152,99.9L144.4,99.7z"/>
	</g>
	<g>
		<g>
			<path class="st0" d="M173.1,261.4L173.1,261.4L173.1,261.4c-4.3,1.1-8.1,4-8.1,10.3c0,9.7,7.9,12.3,12.7,13
				c1.7,0.2,2.1,0.2,2.2,0.2c0,0,0,0,0,0c0.8-0.2,1.6-0.2,2.4-0.4c3.8-1.3,7.1-4.1,7.1-9.8C189.5,260.5,173.1,261.4,173.1,261.4z
				 M179.5,277.7L179.5,277.7L179.5,277.7c-0.2,0.1-0.3,0.1-0.5,0.2c-0.5,0.1-1.1,0.1-1.5,0.1c-3.3-0.2-5.6-1.2-5.6-5.6
				c0-2.2,1.4-3.8,3.1-4.1c4.4,0,7.6,0.5,7.6,5.6C182.6,276,181.2,277.1,179.5,277.7z"/>
		</g>
		<path class="st0" d="M185.5,204.5l0.4,18.5c0,5.7-0.1,9.5-0.5,13.7c-0.6,7.3-1.5,15.8-8.1,15.8s-7.5-10.6-8.2-15.8
			c-0.3-2.1-0.7-5.2-0.7-13.9c0-8.6,0.7-18.3,0.7-18.3h-7.5c0,0-0.6,11.7-0.6,18.2c0,6.4,0.4,10.9,0.6,13.9
			c1.1,13.9,4.2,21.6,15.8,21.6c10.6,0,14.5-7.5,15.7-21.7c0.4-4.8,0.4-8.3,0.4-13.6l-0.5-18.3L185.5,204.5z"/>
	</g>
	<g>
		<g>
			<path class="st0" d="M315.6,261.9L315.6,261.9L315.6,261.9c-4.3,1.1-8.1,4-8.1,10.3c0,9.7,7.9,12.3,12.7,13
				c1.7,0.2,2.1,0.2,2.2,0.2c0,0,0,0,0,0c0.8-0.2,1.6-0.2,2.4-0.4c3.8-1.3,7.1-4.1,7.1-9.8C332,261.1,315.6,261.9,315.6,261.9z
				 M322.1,278.2L322.1,278.2L322.1,278.2c-0.2,0.1-0.3,0.1-0.5,0.2c-0.5,0.1-1.1,0.1-1.5,0.1c-3.3-0.2-5.6-1.2-5.6-5.6
				c0-2.2,1.4-3.8,3.1-4.1c4.4,0,7.6,0.5,7.6,5.6C325.1,276.6,323.7,277.6,322.1,278.2z"/>
		</g>
		<path class="st0" d="M328.1,205.1l0.4,18.5c0,5.7-0.1,9.5-0.5,13.7c-0.6,7.3-1.5,15.8-8.1,15.8c-6.6,0-7.5-10.6-8.2-15.8
			c-0.3-2.1-0.7-5.2-0.7-13.9s0.7-18.3,0.7-18.3h-7.5c0,0-0.6,11.7-0.6,18.2c0,6.4,0.4,10.9,0.6,13.9c1.1,13.9,4.2,21.6,15.8,21.6
			c10.6,0,14.5-7.5,15.7-21.7c0.4-4.8,0.4-8.3,0.4-13.6l-0.5-18.3L328.1,205.1z"/>
	</g>
	<polygon class="st0" points="466.8,99.8 445.4,158.7 447.7,99.8 440.2,99.8 437.6,175.5 445.3,175.5 467.3,113.3 465.8,175.5 
		473.2,175.5 474.3,99.8 	"/>
	<polygon class="st0" points="452.7,205.5 431.3,264.4 433.6,205.5 426.2,205.5 423.5,281.2 431.2,281.2 453.3,218.9 451.8,281.1 
		459.1,281.2 460.2,205.5 	"/>
	<g>
		<polygon class="st0" points="245.7,205.2 238.6,204.7 235.5,279.8 242.9,280.4 		"/>
		<path class="st0" d="M242.6,249.5c0,0,23.5,1.3,22.2,18.6c-0.8,10.6-13.7,12.5-22.1,12.6c-4.2,0.1-7.3-0.3-7.3-0.3l0.3-5.9
			l7.1,0.7c0,0,13.9,3,14.7-7.9c0.5-6.5-6-11.3-15-11.9L242.6,249.5z"/>
	</g>
	<g>
		<polygon class="st0" points="282.1,280.7 275.2,280.7 277,205.1 284,205.1 		"/>
		<polygon class="st0" points="263.9,205.1 295.8,204.5 295.8,210.3 263.8,210.8 		"/>
	</g>
	<path class="st0" d="M201.7,345.4c0-5-0.2-8.8-0.5-11.7l0-0.8l0,0c0-0.4-0.1-0.9-0.1-1.3c-1.1-13.8-4.2-21.4-15.6-21.4
		c-10.5,0-14.4,7.4-15.6,21.5c-0.4,4.8-0.4,8.2-0.4,13.5l0,1.8c0,1.4,0,2.7,0,3.8c0,5,0.2,8.8,0.5,11.7l0,0.8l0,0
		c0,0.4,0.1,0.9,0.1,1.3c1.1,13.8,4.2,21.4,15.6,21.4c10.5,0,14.4-7.4,15.6-21.5c0.4-4.8,0.4-8.2,0.4-13.5l0-1.8
		C201.7,347.9,201.7,346.6,201.7,345.4z M185.6,378.5c-6.5,0-7.5-8.6-8.1-13.8c0-0.2-0.5-8.7-0.5-17.1c0-8,0.4-15.8,0.4-16
		c0.6-7.2,1.5-13.8,8-13.8s7.5,8.6,8.1,13.8c0,0.2,0.5,8.3,0.5,16.4c0,8.2-0.4,16.5-0.4,16.7C193,371.9,192.1,378.5,185.6,378.5z"/>
	<g>
		<polygon class="st0" points="231.3,145.7 247.8,144.3 248.7,149.9 230.7,150.7 		"/>
		<polygon class="st0" points="255.8,176 245.7,100 237.9,99.2 223.2,176 229.6,175.9 240.4,115.3 241.1,115.3 247.7,175.8 		"/>
	</g>
	<g>
		<polygon class="st0" points="142.7,386.3 135.4,386.3 136.4,310.3 144,310.3 		"/>
		<path class="st0" d="M125.3,348.7c0-4-1.8-33,14.4-28l-0.1-5.7c-5.6-1.3-14.1-0.8-18.5,9c-3.7,8.2-3.6,19.4-3.6,24.8
			s0.1,15.1,3.6,22.9c4.4,9.8,12.9,10.3,18.5,9l0.1-5.7C124.2,379.7,125.3,352.7,125.3,348.7z"/>
		<path class="st0" d="M154.1,348.7c0-4,1.8-33-14.4-28l0.1-5.7c5.6-1.3,14.1-0.8,18.5,9c3.7,8.2,3.6,19.4,3.6,24.8
			s-0.1,15.1-3.6,22.9c-4.4,9.8-12.9,10.3-18.5,9l-0.1-5.7C155.2,379.7,154.1,352.7,154.1,348.7z"/>
	</g>
	<g>
		<polygon class="st0" points="228.1,281.3 218.1,204.2 210.3,203.5 195.6,281.3 202,281.3 212.5,218.9 213.2,218.8 220.1,281.3 		
			"/>
	</g>
	<polygon class="st0" points="313,99.7 311.4,144.3 292.9,131.1 293.7,99.7 286,99.6 284,176 291.6,176 292.5,139.7 310.8,153 
		309.9,176 317.6,176 320.5,99.8 	"/>
	<polygon class="st0" points="238.2,308.6 236.6,353.3 218.2,340.1 218.9,308.6 211.2,308.5 209.2,384.9 216.8,384.9 217.8,348.6 
		236,361.9 235.1,384.9 242.8,384.9 245.7,308.7 	"/>
	<polygon class="st0" points="407.7,205.5 406.1,250.1 387.7,236.9 388.4,205.4 380.8,205.4 378.7,281.7 386.3,281.7 387.3,245.4 
		405.6,258.7 404.7,281.8 412.3,281.8 415.3,205.6 	"/>
	<g>
		<polygon class="st0" points="511.9,99.8 490.5,158.7 492.8,99.8 485.4,99.8 482.7,175.5 490.4,175.5 512.5,113.3 510.9,175.5 
			518.3,175.5 519.4,99.8 		"/>
		<g>
			<path class="st0" d="M507.4,85c-0.2,3.4-0.8,6.7-4.6,6.7c-4.5,0-5.2-3.2-5.3-6.8l-5,0.6c0.5,6.9,3.3,11.6,10.3,11.6
				c8,0,9.6-6.1,9.9-11.5L507.4,85z"/>
		</g>
	</g>
	<g>
		<polygon class="st0" points="497.5,205.5 476.1,264.4 478.5,205.5 471,205.5 468.3,281.2 476.1,281.2 498.1,218.9 496.6,281.1 
			503.9,281.2 505,205.5 		"/>
		<g>
			<path class="st0" d="M493.1,190.7c-0.2,3.4-0.8,6.7-4.6,6.7c-4.5,0-5.2-3.2-5.3-6.8l-5,0.6c0.5,6.9,3.3,11.6,10.3,11.6
				c8,0,9.6-6.1,9.9-11.5L493.1,190.7z"/>
		</g>
	</g>
</g>
<g>
	<g>
		<path class="st0" d="M251.7,385.8l19.1-75.7l7,0.5c0,0,12.6,75.2,12.5,75.2l-7.5,0c0,0-10.2-61.6-10.2-61.5h-0.5
			c0,0-8.4,43.7-14.5,61.5L251.7,385.8z"/>
	</g>
	<polygon class="st0" points="287.4,378.5 286.5,385.8 254.5,385.8 254.5,378.5 	"/>
</g>
</svg>
