<?xml version="1.0" encoding="utf-8"?>
<!-- Generator: Adobe Illustrator 17.0.0, SVG Export Plug-In . SVG Version: 6.00 Build 0)  -->
<!DOCTYPE svg PUBLIC "-//W3C//DTD SVG 1.1//EN" "http://www.w3.org/Graphics/SVG/1.1/DTD/svg11.dtd">
<svg version="1.1" id="Layer_1" xmlns="http://www.w3.org/2000/svg" xmlns:xlink="http://www.w3.org/1999/xlink" x="0px" y="0px"
	 width="633.9px" height="485.2px" viewBox="0 0 633.9 485.2" style="enable-background:new 0 0 633.9 485.2;" xml:space="preserve"
	>
<style type="text/css">
	.st0{fill:#1A1A1A;}
	.st1{fill:#A6A8AB;}
	.st2{fill:#FFCC2D;}
	.st3{fill:#A3D2D9;}
</style>
<path class="st2" d="M101.8,65.6C82.6,69,56.1,88.4,56.1,124c0,55.2,44.4,71.2,71.9,73.9c40.7,3.9,66.7-24.5,66.7-57.2
	C194.6,61,121,62.3,101.8,65.6z M124.6,168.2c-23-1.6-36-11.1-36-40.9c0-15.2,5.3-25.1,24.4-29.7c19.1-4.6,50.2,2.3,50.2,37.7
	C163.1,150.2,151.9,170.1,124.6,168.2z"/>
<g>
	<g>
		<g>
			<path class="st0" d="M246.3,395.4l19.1-75.7l7,0.5c0,0,12.6,75.2,12.5,75.2l-7.5,0c0,0-10.2-61.6-10.2-61.5h-0.5
				c0,0-8.4,43.7-14.5,61.5L246.3,395.4z"/>
		</g>
		<polygon class="st0" points="282,388.1 281.1,395.4 249.1,395.4 249.1,388.1 		"/>
	</g>
	<g>
		<path class="st0" d="M368.7,155.6l2.1-48.1l-7.6,0l-3.2,77.7l11.7-0.1c0,0,15.8-1.4,15.8-15.2C387.4,159.9,375.6,156,368.7,155.6z
			 M367.7,179.4l0.9-18c3.9-0.2,11.2-0.1,11.2,9.3C379.8,177.4,371.3,179.6,367.7,179.4z"/>
		<path class="st0" d="M345.1,127.7l7.3-0.9c0,0,2.8-20.4-11.6-19.9S321.9,126.8,322,147c0.1,20.2,1.9,39.6,17,39.2
			c15.1-0.4,11.9-20.2,11.9-20.2l-7.6,0.8c0,0,3.1,11.7-3.8,11.7c-8.2,0-10.7-10.3-10-31c0.7-21,1.6-33.2,11.3-33.2
			C346.2,114.3,345.1,127.7,345.1,127.7z"/>
		<path class="st0" d="M180.6,165.6c-3.6-10.2-13.2-10.3-18.8-8.9l0.6-16c20.8-2.3,22.1-31.4,22.1-31.4l-7.6,0
			c0,22-10.8,25.4-14.2,25.4l0.7-25.4l-7.8,0l-2.1,75.9l7.9,0l0.5-22.9c16.4-5.4,14.6,22.7,14.6,22.7l7.4,0
			C183.9,185.2,185.1,178.3,180.6,165.6z"/>
		<path class="st0" d="M142,271.4c-3.6-10.2-13.2-10.3-18.8-8.9l0.6-16c22.2-2.5,23-32.5,23-32.5l-7.6,0c0,22-11.7,26.5-15.1,26.5
			l0.7-26.4l-7.8,0l-2.1,77l7.9,0l0.5-22.9c16.4-5.4,14.6,22.7,14.6,22.7l7.4,0C145.2,291,146.4,284.1,142,271.4z"/>
		<path class="st0" d="M419.5,165.6c-3.6-10.2-13.2-10.3-18.8-8.9l0.6-16c20.8-2.3,22.1-31.4,22.1-31.4l-7.6,0
			c0,22-10.8,25.4-14.2,25.4l0.7-25.4l-7.8,0l-2.1,75.9l7.9,0l0.5-22.9c16.4-5.4,14.6,22.7,14.6,22.7l7.4,0
			C422.8,185.2,424,178.3,419.5,165.6z"/>
		<g>
			<polygon class="st0" points="196.8,185.6 189.7,185.6 191.9,110.5 199.4,110.5 			"/>
			<path class="st0" d="M196.9,141.2c0,0,23.5,0.4,23.5-17c0-10.6-12.8-13.4-21.2-14.2c-4.2-0.3-7.3-0.2-7.3-0.2l-0.1,5.9l7.1-0.2
				c0,0,14.1-2,14.1,8.9c0,6.5-6.7,10.8-15.8,10.8L196.9,141.2z"/>
		</g>
		<g>
			<polygon class="st0" points="345.7,290.7 338.6,290.7 340.8,215.6 348.2,215.5 			"/>
			<path class="st0" d="M345.8,246.3c0,0,23.5,0.4,23.5-17c0-10.6-12.8-13.4-21.2-14.2c-4.2-0.3-7.3-0.2-7.3-0.2l-0.1,5.9l7.1-0.2
				c0,0,14.1-2,14.1,8.9c0,6.5-6.7,10.8-15.8,10.8L345.8,246.3z"/>
		</g>
		<polygon class="st0" points="265.1,185.1 257.5,185.1 260.5,109.3 268.2,109.4 		"/>
		<g>
			<path class="st0" d="M272.2,88.6L272.2,88.6L272.2,88.6c-3,0.8-5.6,2.8-5.6,7.2c0,6.8,5.5,8.6,8.8,9.1c1.2,0.2,1.5,0.1,1.5,0.1
				c0,0,0,0,0,0c0.6-0.1,1.1-0.1,1.7-0.3c2.7-0.9,4.9-2.8,4.9-6.8C283.6,88,272.2,88.6,272.2,88.6z M276.5,99.5L276.5,99.5
				L276.5,99.5c-0.1,0-0.2,0.1-0.3,0.1c-0.3,0.1-0.6,0.1-0.9,0.1c-2-0.1-3.4-0.7-3.4-3.4c0-1.3,0.8-2.3,1.9-2.5
				c2.7,0,4.6,0.3,4.6,3.4C278.3,98.5,277.4,99.2,276.5,99.5z"/>
		</g>
		<g>
			<path class="st0" d="M250.5,88.6L250.5,88.6L250.5,88.6c-3,0.8-5.6,2.8-5.6,7.2c0,6.8,5.5,8.6,8.8,9.1c1.2,0.2,1.5,0.1,1.5,0.1
				c0,0,0,0,0,0c0.6-0.1,1.1-0.1,1.7-0.3c2.7-0.9,4.9-2.8,4.9-6.8C261.9,88,250.5,88.6,250.5,88.6z M254.8,99.5L254.8,99.5
				L254.8,99.5c-0.1,0-0.2,0.1-0.3,0.1c-0.3,0.1-0.6,0.1-0.9,0.1c-2-0.1-3.4-0.7-3.4-3.4c0-1.3,0.8-2.3,1.9-2.5
				c2.7,0,4.6,0.3,4.6,3.4C256.7,98.5,255.8,99.2,254.8,99.5z"/>
		</g>
		<g>
			<g>
				<path class="st0" d="M126.6,166.1L126.6,166.1L126.6,166.1c-4.3,1.1-8.1,4-8.1,10.3c0,9.7,7.9,12.3,12.7,13
					c1.7,0.2,2.1,0.2,2.2,0.2c0,0,0,0,0,0c0.8-0.2,1.6-0.2,2.4-0.4c3.8-1.3,7.1-4.1,7.1-9.8C142.9,165.3,126.6,166.1,126.6,166.1z
					 M133,182.5L133,182.5L133,182.5c-0.2,0.1-0.3,0.1-0.5,0.2c-0.5,0.1-1.1,0.1-1.5,0.1c-3.3-0.2-5.6-1.2-5.6-5.6
					c0-2.2,1.4-3.8,3.1-4.1c4.4,0,7.6,0.5,7.6,5.6C136.1,180.8,134.6,181.9,133,182.5z"/>
			</g>
			<path class="st0" d="M139,109.3l0.4,18.5c0,5.7-0.1,9.5-0.5,13.7c-0.6,7.3-1.5,15.8-8.1,15.8s-7.5-10.6-8.2-15.8
				c-0.3-2.1-0.7-5.2-0.7-13.9s0.7-18.3,0.7-18.3h-7.5c0,0-0.6,11.7-0.6,18.2c0,6.4,0.4,10.9,0.6,13.9c1.1,13.9,4.2,21.6,15.8,21.6
				c10.6,0,14.5-7.5,15.7-21.7c0.4-4.8,0.4-8.3,0.4-13.6l-0.5-18.3L139,109.3z"/>
		</g>
		<g>
			<g>
				<path class="st0" d="M167.7,270.9L167.7,270.9L167.7,270.9c-4.3,1.1-8.1,4-8.1,10.3c0,9.7,7.9,12.3,12.7,13
					c1.7,0.2,2.1,0.2,2.2,0.2c0,0,0,0,0,0c0.8-0.2,1.6-0.2,2.4-0.4c3.8-1.3,7.1-4.1,7.1-9.8C184.1,270.1,167.7,270.9,167.7,270.9z
					 M174.1,287.3L174.1,287.3L174.1,287.3c-0.2,0.1-0.3,0.1-0.5,0.2c-0.5,0.1-1.1,0.1-1.5,0.1c-3.3-0.2-5.6-1.2-5.6-5.6
					c0-2.2,1.4-3.8,3.1-4.1c4.4,0,7.6,0.5,7.6,5.6C177.2,285.6,175.8,286.7,174.1,287.3z"/>
			</g>
			<path class="st0" d="M180.1,214.1l0.4,18.5c0,5.7-0.1,9.5-0.5,13.7c-0.6,7.3-1.5,15.8-8.1,15.8s-7.5-10.6-8.2-15.8
				c-0.3-2.1-0.7-5.2-0.7-13.9c0-8.6,0.7-18.3,0.7-18.3h-7.5c0,0-0.6,11.7-0.6,18.2c0,6.4,0.4,10.9,0.6,13.9
				c1.1,13.9,4.2,21.6,15.8,21.6c10.6,0,14.5-7.5,15.7-21.7c0.4-4.8,0.4-8.3,0.4-13.6l-0.5-18.3L180.1,214.1z"/>
		</g>
		<g>
			<g>
				<path class="st0" d="M310.2,271.5L310.2,271.5L310.2,271.5c-4.3,1.1-8.1,4-8.1,10.3c0,9.7,7.9,12.3,12.7,13
					c1.7,0.2,2.1,0.2,2.2,0.2c0,0,0,0,0,0c0.8-0.2,1.6-0.2,2.4-0.4c3.8-1.3,7.1-4.1,7.1-9.8C326.6,270.7,310.2,271.5,310.2,271.5z
					 M316.7,287.8L316.7,287.8L316.7,287.8c-0.2,0.1-0.3,0.1-0.5,0.2c-0.5,0.1-1.1,0.1-1.5,0.1c-3.3-0.2-5.6-1.2-5.6-5.6
					c0-2.2,1.4-3.8,3.1-4.1c4.4,0,7.6,0.5,7.6,5.6C319.7,286.2,318.3,287.2,316.7,287.8z"/>
			</g>
			<path class="st0" d="M322.7,214.7l0.4,18.5c0,5.7-0.1,9.5-0.5,13.7c-0.6,7.3-1.5,15.8-8.1,15.8c-6.6,0-7.5-10.6-8.2-15.8
				c-0.3-2.1-0.7-5.2-0.7-13.9s0.7-18.3,0.7-18.3h-7.5c0,0-0.6,11.7-0.6,18.2c0,6.4,0.4,10.9,0.6,13.9c1.1,13.9,4.2,21.6,15.8,21.6
				c10.6,0,14.5-7.5,15.7-21.7c0.4-4.8,0.4-8.3,0.4-13.6l-0.5-18.3L322.7,214.7z"/>
		</g>
		<polygon class="st0" points="461.4,109.4 440,168.3 442.3,109.4 434.8,109.4 432.2,185.1 439.9,185.1 461.9,122.8 460.4,185.1 
			467.8,185.1 468.9,109.4 		"/>
		<polygon class="st0" points="447.3,215.1 425.9,273.9 428.2,215 420.8,215 418.1,290.8 425.8,290.8 447.9,228.5 446.4,290.7 
			453.7,290.8 454.8,215.1 		"/>
		<g>
			<polygon class="st0" points="240.3,214.8 233.2,214.3 230.1,289.4 237.5,290 			"/>
			<path class="st0" d="M237.2,259.1c0,0,23.5,1.3,22.2,18.6c-0.8,10.6-13.7,12.5-22.1,12.6c-4.2,0.1-7.3-0.3-7.3-0.3l0.3-5.9
				l7.1,0.7c0,0,13.9,3,14.7-7.9c0.5-6.5-6-11.3-15-11.9L237.2,259.1z"/>
		</g>
		<g>
			<polygon class="st0" points="276.7,290.3 269.8,290.3 271.6,214.7 278.6,214.7 			"/>
			<polygon class="st0" points="258.5,214.7 290.4,214.1 290.4,219.9 258.4,220.4 			"/>
		</g>
		<path class="st0" d="M196.3,355c0-5-0.2-8.8-0.5-11.7l0-0.8l0,0c0-0.4-0.1-0.9-0.1-1.3c-1.1-13.8-4.2-21.4-15.6-21.4
			c-10.5,0-14.4,7.4-15.6,21.5c-0.4,4.8-0.4,8.2-0.4,13.5l0,1.8c0,1.4,0,2.7,0,3.8c0,5,0.2,8.8,0.5,11.7l0,0.8l0,0
			c0,0.4,0.1,0.9,0.1,1.3c1.1,13.8,4.2,21.4,15.6,21.4c10.5,0,14.4-7.4,15.6-21.5c0.4-4.8,0.4-8.2,0.4-13.5l0-1.8
			C196.3,357.4,196.3,356.1,196.3,355z M180.2,388.1c-6.5,0-7.5-8.6-8.1-13.8c0-0.2-0.5-8.7-0.5-17.1c0-8,0.4-15.8,0.4-16
			c0.6-7.2,1.5-13.8,8-13.8s7.5,8.6,8.1,13.8c0,0.2,0.5,8.3,0.5,16.4c0,8.2-0.4,16.5-0.4,16.7C187.6,381.5,186.7,388.1,180.2,388.1z
			"/>
		<g>
			<polygon class="st0" points="225.9,155.3 242.4,153.9 243.3,159.5 225.3,160.3 			"/>
			<polygon class="st0" points="250.4,185.6 240.3,109.5 232.5,108.8 217.8,185.5 224.2,185.5 235,124.9 235.7,124.8 242.3,185.3 
							"/>
		</g>
		<g>
			<polygon class="st0" points="137.3,395.8 130,395.8 131,319.9 138.6,319.9 			"/>
			<path class="st0" d="M119.9,358.3c0-4-1.8-33,14.4-28l-0.1-5.7c-5.6-1.3-14.1-0.8-18.5,9c-3.7,8.2-3.6,19.4-3.6,24.8
				s0.1,15.1,3.6,22.9c4.4,9.8,12.9,10.3,18.5,9l0.1-5.7C118.8,389.3,119.9,362.3,119.9,358.3z"/>
			<path class="st0" d="M148.7,358.3c0-4,1.8-33-14.4-28l0.1-5.7c5.6-1.3,14.1-0.8,18.5,9c3.7,8.2,3.6,19.4,3.6,24.8
				s-0.1,15.1-3.6,22.9c-4.4,9.8-12.9,10.3-18.5,9l-0.1-5.7C149.8,389.3,148.7,362.3,148.7,358.3z"/>
		</g>
		<g>
			<polygon class="st0" points="222.7,290.9 212.7,213.8 204.9,213.1 190.2,290.9 196.6,290.9 207.1,228.5 207.8,228.4 214.7,290.9 
							"/>
		</g>
		<polygon class="st0" points="307.6,109.3 306,153.9 287.5,140.7 288.3,109.2 280.6,109.2 278.6,185.6 286.2,185.6 287.2,149.2 
			305.4,162.6 304.5,185.6 312.2,185.6 315.1,109.4 		"/>
		<polygon class="st0" points="232.8,318.2 231.2,362.8 212.8,349.6 213.5,318.1 205.8,318.1 203.8,394.5 211.4,394.5 212.4,358.1 
			230.6,371.5 229.7,394.5 237.4,394.5 240.3,318.3 		"/>
		<polygon class="st0" points="402.3,215 400.7,259.7 382.3,246.5 383,215 375.4,215 373.3,291.3 380.9,291.3 381.9,255 
			400.2,268.3 399.3,291.3 406.9,291.3 409.9,215.2 		"/>
		<g>
			<polygon class="st0" points="506.5,109.4 485.1,168.3 487.4,109.4 480,109.4 477.3,185.1 485,185.1 507.1,122.8 505.6,185.1 
				512.9,185.1 514,109.4 			"/>
			<g>
				<path class="st0" d="M502,94.6c-0.2,3.4-0.8,6.7-4.6,6.7c-4.5,0-5.2-3.2-5.3-6.8l-5,0.6c0.5,6.9,3.3,11.6,10.3,11.6
					c8,0,9.6-6.1,9.9-11.5L502,94.6z"/>
			</g>
		</g>
		<g>
			<polygon class="st0" points="492.1,215.1 470.7,274 473.1,215.1 465.6,215.1 462.9,290.8 470.7,290.8 492.7,228.5 491.2,290.7 
				498.5,290.8 499.6,215.1 			"/>
			<g>
				<path class="st0" d="M487.7,200.2c-0.2,3.4-0.8,6.7-4.6,6.7c-4.5,0-5.2-3.2-5.3-6.8l-5,0.6c0.5,6.9,3.3,11.6,10.3,11.6
					c8,0,9.6-6.1,9.9-11.5L487.7,200.2z"/>
			</g>
		</g>
	</g>
</g>
<polygon class="st3" points="424.6,346.6 337.3,344.9 335.2,319.3 430.1,324.4 "/>
<polygon class="st3" points="405.2,388.3 318,386.6 315.9,361.1 410.7,366.1 "/>
</svg>
